<svg version="1.1" id="Layer_1" xmlns="http://www.w3.org/2000/svg" xmlns:xlink="http://www.w3.org/1999/xlink" x="0px" y="0px"
	 width="4064px" height="3708px" viewBox="0 0 4064 3708" enable-background="new 0 0 4064 3708" xml:space="preserve">
<path display="none" fill="#00B3D6" d="M2519.365,320.605c176.025,17.587-345.865-92.757-532.966-92.757
	c-867.221,0-1570.238,703.018-1570.238,1570.24c0,241.494,338.893,563.082,724.297-58.656
	c50.901,29.086,119.985,79.991,119.985,79.991l10.541-443.362l-395.947,196.121l119.985,61.81c0,0-216.658,314.329-330.866,189.066
	c-112.713-123.62-32.667-648.108,315.811-984.909C1465.959,368.438,1858.669,254.613,2519.365,320.605z"/>
<path fill="#00859B" d="M1875.566,3368.326c0,0,916.21-340.535,1293.67-1044.205c-93.236-64.102-186.473-122.372-186.473-122.372
	l518.631-227.269l55.243,547.771l-132.705-91.42C3423.933,2430.831,3000.246,3442.97,1875.566,3368.326z"/>
<path fill="#009CAF" d="M3198.371,1572.394c0,0-571.076,1100.977-1322.805,1490.281
	c-297.196,170.513-629.712,235.558-1063.67-222.362c335.251,101.508,690.795,112.035,1089.775-230.65
	c539.146-463.074,929.579-1188.779,929.579-1188.779l-268.057-104.893l745.9-477.841l110.718,839.138L3198.371,1572.394z"/>
<path fill="#00ACC6" d="M521.387,2364.402c0,0,93.666,284.359,260.357,311.828c274.362,45.217,864.438-42.791,1251.129-799.584
	c93.598,43.905,186.828,97.834,186.828,97.834l-67.835-695.105l-638.546,321.334l204.937,118.819
	c0,0-273.076,528.45-613.626,651.874C805.124,2479.949,610.48,2471.804,521.387,2364.402z"/>
<path fill="#88D3CE" d="M527.415,1970.569c21.166,25.472,45.536,45.47,72.434,59.44c28.537,14.822,59.21,22.336,91.167,22.336
	c57.179,0,117.741-23.649,180.004-70.292c76.138-57.032,152.531-146.911,227.058-267.137l24.409-39.379l40.228,22.985
	c16.024,9.159,33.556,20.222,50.278,31.249l6.53-274.627l-239.568,118.661l35.489,18.283l48.523,24.996l-30.977,44.942
	c-1.625,2.357-40.458,58.442-94.671,115.193c-78.682,82.367-149.938,124.129-211.785,124.129c-38.113,0-72.495-15.616-99.431-45.155
	c-35.642-39.093-56.289-104.48-59.706-189.095c-3.194-79.054,8.461-171.711,33.699-267.952
	c34.421-131.238,124.873-383.025,343.932-594.742c318.667-307.991,603.536-469.213,949.789-525.125
	c-73.075,4.274-145.686,13.741-216.819,28.296c-97.712,19.997-193.826,49.831-285.67,88.677
	c-90.187,38.147-177.177,85.362-258.553,140.341c-80.614,54.46-156.422,117.009-225.318,185.905
	c-68.895,68.895-131.441,144.703-185.903,225.315c-54.977,81.377-102.193,168.369-140.34,258.554
	c-38.848,91.845-68.682,187.958-88.678,285.671c-20.521,100.288-30.928,203.52-30.928,306.832
	C462.609,1857.555,486.836,1921.741,527.415,1970.569z"/>
<path fill="#2D918A" d="M3449.605,2392.072l47.281,32.57l-38.217-378.918l-375.982,164.756
	c32.756,21.303,72.582,47.629,112.185,74.855l35.44,24.367l-20.33,37.898c-199.96,372.771-548.238,642.954-805.199,803.971
	c-115.812,72.566-223.25,129.58-305.094,169.821c82.164-5.55,162.495-17.444,239.901-35.557
	c100.854-23.599,199.067-58.298,291.901-103.132c156.609-75.625,301.188-181.205,429.717-313.797
	c219.296-226.227,315.914-453.566,316.865-455.836l22.836-54.547L3449.605,2392.072z"/>
<path fill="#38B5AD" d="M1659.435,3109.822c59.64-19.832,122.009-48.623,190.666-88.012l0.897-0.518l0.917-0.474
	c167.142-86.558,339.431-217.284,512.093-388.546c139.098-137.974,278.564-302.257,414.522-488.279
	c231.887-317.272,374.241-590.208,375.651-592.925l21.322-41.114l41.855,19.828l141.744,67.142l-89.301-676.798l-602.948,386.262
	l180.324,70.564l50.464,19.743l-25.672,47.72c-4.037,7.503-100.754,186.501-265.365,425.245
	c-152.156,220.679-392.812,534.652-675.214,777.211c-238.384,204.748-481.844,304.279-744.29,304.279
	c-68.441,0-139.253-6.771-213.78-20.527c15.004,12.848,29.934,25.09,44.747,36.691c53.476,41.879,107.099,76.687,159.377,103.461
	c49.032,25.114,98.445,43.955,146.866,55.988c45.265,11.256,91.286,16.963,136.786,16.963
	C1525.959,3143.726,1590.833,3132.634,1659.435,3109.822z"/>
<path fill="#60C4BD" d="M905.957,2638.707c79.808,0,161.977-10.99,244.224-32.673c97.284-25.646,192.08-65.796,281.758-119.339
	c103.82-61.988,201.177-142.279,289.363-238.652c100.239-109.539,190.151-241.582,267.245-392.459l21.123-41.343l42.029,19.718
	c38.994,18.292,77.611,38.108,109.79,55.229l-52.176-534.647l-496.674,249.938l128.135,74.291l39.574,22.946l-21.001,40.64
	c-2.863,5.542-71.404,137.405-183.372,286.451c-152.792,203.388-306.398,334.106-456.55,388.526
	c-147.302,53.383-274,80.453-376.574,80.453c-42.283,0-80.743-4.525-115.273-13.53c0.677,1.149,1.356,2.296,2.043,3.446
	c35.008,58.611,90.899,130.818,158.364,141.932C824.513,2635.656,864.205,2638.707,905.957,2638.707z"/>
</svg>